<svg xmlns="http://www.w3.org/2000/svg" viewBox="0 0 256 256" role="img" aria-labelledby="title">
  <title id="title">DirDeck</title>
  <defs>
    <linearGradient id="bg" x1="28" y1="20" x2="228" y2="236" gradientUnits="userSpaceOnUse">
      <stop stop-color="#17233f"/>
      <stop offset="1" stop-color="#080d18"/>
    </linearGradient>
    <linearGradient id="left" x1="38" y1="68" x2="118" y2="190" gradientUnits="userSpaceOnUse">
      <stop stop-color="#70d8ff"/>
      <stop offset="1" stop-color="#2877ff"/>
    </linearGradient>
    <linearGradient id="right" x1="138" y1="72" x2="218" y2="194" gradientUnits="userSpaceOnUse">
      <stop stop-color="#8aa9ff"/>
      <stop offset="1" stop-color="#4856d9"/>
    </linearGradient>
    <filter id="shadow" x="-20%" y="-20%" width="140%" height="150%">
      <feDropShadow dx="0" dy="8" stdDeviation="10" flood-color="#020611" flood-opacity=".55"/>
    </filter>
  </defs>
  <rect x="10" y="10" width="236" height="236" rx="54" fill="url(#bg)"/>
  <rect x="11" y="11" width="234" height="234" rx="53" fill="none" stroke="#d8ecff" stroke-opacity=".18" stroke-width="2"/>
  <path d="M38 81c0-8.8 7.2-16 16-16h22l12 13h23c8.8 0 16 7.2 16 16v82c0 8.8-7.2 16-16 16H54c-8.8 0-16-7.2-16-16V81Z" fill="url(#left)" filter="url(#shadow)"/>
  <path d="M129 86c0-8.8 7.2-16 16-16h20l12 13h25c8.8 0 16 7.2 16 16v77c0 8.8-7.2 16-16 16h-57c-8.8 0-16-7.2-16-16V86Z" fill="url(#right)" filter="url(#shadow)"/>
  <path d="M48 103h69v66c0 7.2-5.8 13-13 13H61c-7.2 0-13-5.8-13-13v-66Z" fill="#071120" fill-opacity=".34"/>
  <path d="M139 108h69v61c0 7.2-5.8 13-13 13h-43c-7.2 0-13-5.8-13-13v-61Z" fill="#091020" fill-opacity=".34"/>
  <path d="M92 119h63m0 0-13-13m13 13-13 13M164 151h-63m0 0 13-13m-13 13 13 13" fill="none" stroke="#f7fbff" stroke-width="9" stroke-linecap="round" stroke-linejoin="round"/>
  <path d="M31 54c36-33 96-41 144-20" fill="none" stroke="#fff" stroke-opacity=".14" stroke-width="9" stroke-linecap="round"/>
</svg>
